<svg version="1.2" xmlns="http://www.w3.org/2000/svg" viewBox="0 0 1024 720" width="1024" height="720">
	<title>akol_logo</title>
	<style>
		.s0 { fill: #000000 } 
	</style>
	<path id="Color Fill 2" fill-rule="evenodd" class="s0" d="m0 342l99.2-338h340l-97.2 338h-118.4l12.4-53.6-98.2-2.1-17.6 55.7zm389 0l98.3-338h126.9l-45.5 137.6 141.7-137.6h140.6l-175.8 174.6 75.6 163.4h-143.6l-27.3-73.4-72.2 73.4zm-113.7 374l102.2-334h339.9l-96.1 334zm389.6 0l98.1-334h121.5l-61.8 221 201.4-3-32.1 116zm-492.1-547.6l98.5-0.1 13.8-46.8h-97.1zm258.4 432.6l102.2-0.9 27.3-106.7-101.2 0.3z"/>
</svg>